<svg id="artwork" xmlns="http://www.w3.org/2000/svg" xmlns:xlink="http://www.w3.org/1999/xlink" width="135" height="40" viewBox="0 0 135 40"><defs><linearGradient id="linear-gradient" x1="21.8" y1="173.42" x2="5.02" y2="156.63" gradientTransform="matrix(1, 0, 0, -1, 0, 182.25)" gradientUnits="userSpaceOnUse"><stop offset="0" stop-color="#00a0ff"/><stop offset="0.01" stop-color="#00a1ff"/><stop offset="0.26" stop-color="#00beff"/><stop offset="0.51" stop-color="#00d2ff"/><stop offset="0.76" stop-color="#00dfff"/><stop offset="1" stop-color="#00e3ff"/></linearGradient><linearGradient id="linear-gradient-2" x1="33.83" y1="162.12" x2="9.64" y2="162.12" gradientTransform="matrix(1, 0, 0, -1, 0, 182.25)" gradientUnits="userSpaceOnUse"><stop offset="0" stop-color="#ffe000"/><stop offset="0.41" stop-color="#ffbd00"/><stop offset="0.78" stop-color="orange"/><stop offset="1" stop-color="#ff9c00"/></linearGradient><linearGradient id="linear-gradient-3" x1="24.83" y1="159.83" x2="2.07" y2="137.07" gradientTransform="matrix(1, 0, 0, -1, 0, 182.25)" gradientUnits="userSpaceOnUse"><stop offset="0" stop-color="#ff3a44"/><stop offset="1" stop-color="#c31162"/></linearGradient><linearGradient id="linear-gradient-4" x1="7.3" y1="181.95" x2="17.46" y2="171.79" gradientTransform="matrix(1, 0, 0, -1, 0, 182.25)" gradientUnits="userSpaceOnUse"><stop offset="0" stop-color="#32a071"/><stop offset="0.07" stop-color="#2da771"/><stop offset="0.48" stop-color="#15cf74"/><stop offset="0.8" stop-color="#06e775"/><stop offset="1" stop-color="#00f076"/></linearGradient></defs><title>google-play-store</title><rect width="135" height="40" rx="5" ry="5"/><path d="M130,.92a4.2,4.2,0,0,1,4.2,4.2v30a4.2,4.2,0,0,1-4.2,4.2H5a4.2,4.2,0,0,1-4.2-4.2v-30A4.2,4.2,0,0,1,5,.92H130m0-.8H5a5,5,0,0,0-5,5v30a5,5,0,0,0,5,5H130a5,5,0,0,0,5-5v-30a5,5,0,0,0-5-5Z" transform="translate(0 -0.12)" style="fill:#a6a6a6"/><path d="M47.42,10.37a2.71,2.71,0,0,1-.75,2,2.91,2.91,0,0,1-2.2.89,3.09,3.09,0,0,1-3.12-3.13A3.09,3.09,0,0,1,44.47,7a3.1,3.1,0,0,1,1.23.25,2.47,2.47,0,0,1,.94.67l-.53.53a2,2,0,0,0-1.64-.71,2.32,2.32,0,0,0-2.33,2.4,2.36,2.36,0,0,0,4,1.73,1.89,1.89,0,0,0,.5-1.22H44.47V9.92h2.91A2.54,2.54,0,0,1,47.42,10.37Z" transform="translate(0 -0.12)" style="fill:#fff;stroke:#fff;stroke-miterlimit:10;stroke-width:0.2px"/><path d="M52,7.86H49.3v1.9h2.46v.72H49.3v1.9H52v.74h-3.5v-6H52Z" transform="translate(0 -0.12)" style="fill:#fff;stroke:#fff;stroke-miterlimit:10;stroke-width:0.2px"/><path d="M55.28,13.13h-.77V7.86H52.83V7.13H57v.74H55.28Z" transform="translate(0 -0.12)" style="fill:#fff;stroke:#fff;stroke-miterlimit:10;stroke-width:0.2px"/><path d="M59.94,13.13v-6h.77v6Z" transform="translate(0 -0.12)" style="fill:#fff;stroke:#fff;stroke-miterlimit:10;stroke-width:0.2px"/><path d="M64.13,13.13h-.77V7.86H61.68V7.13H65.8v.74H64.13Z" transform="translate(0 -0.12)" style="fill:#fff;stroke:#fff;stroke-miterlimit:10;stroke-width:0.2px"/><path d="M73.61,12.35a3.12,3.12,0,0,1-4.4,0,3.07,3.07,0,0,1-.88-2.22,3.07,3.07,0,0,1,.88-2.22,3.1,3.1,0,0,1,4.4,0,3.07,3.07,0,0,1,.89,2.22A3.07,3.07,0,0,1,73.61,12.35Zm-3.83-.5a2.31,2.31,0,0,0,3.26,0,2.35,2.35,0,0,0,.67-1.72A2.35,2.35,0,0,0,73,8.4a2.31,2.31,0,0,0-3.26,0,2.35,2.35,0,0,0-.67,1.72A2.35,2.35,0,0,0,69.78,11.85Z" transform="translate(0 -0.12)" style="fill:#fff;stroke:#fff;stroke-miterlimit:10;stroke-width:0.2px"/><path d="M75.58,13.13v-6h.94l2.92,4.67h0l0-1.16V7.13h.77v6h-.8L76.35,8.23h0l0,1.16v3.74Z" transform="translate(0 -0.12)" style="fill:#fff;stroke:#fff;stroke-miterlimit:10;stroke-width:0.2px"/><path d="M68.14,21.88a4.25,4.25,0,1,0,4.27,4.25A4.19,4.19,0,0,0,68.14,21.88Zm0,6.83a2.58,2.58,0,1,1,2.4-2.58A2.46,2.46,0,0,1,68.14,28.71Zm-9.31-6.83a4.25,4.25,0,1,0,4.27,4.25A4.19,4.19,0,0,0,58.82,21.88Zm0,6.83a2.58,2.58,0,1,1,2.4-2.58A2.46,2.46,0,0,1,58.82,28.71ZM47.74,23.18V25h4.32a3.77,3.77,0,0,1-1,2.27,4.42,4.42,0,0,1-3.33,1.32,4.8,4.8,0,0,1,0-9.6A4.6,4.6,0,0,1,51,20.27L52.27,19a6.29,6.29,0,0,0-4.53-1.82,6.61,6.61,0,1,0,0,13.21,6,6,0,0,0,4.61-1.85,6,6,0,0,0,1.56-4.22,5.87,5.87,0,0,0-.1-1.13Zm45.31,1.4a4,4,0,0,0-3.64-2.71,4,4,0,0,0-4,4.25,4.16,4.16,0,0,0,4.22,4.25,4.23,4.23,0,0,0,3.54-1.88l-1.45-1a2.43,2.43,0,0,1-2.09,1.18,2.16,2.16,0,0,1-2.06-1.29l5.69-2.35ZM87.25,26a2.33,2.33,0,0,1,2.22-2.48,1.65,1.65,0,0,1,1.58.9Zm-4.62,4.12H84.5V17.62H82.63Zm-3.06-7.3H79.5a3,3,0,0,0-2.24-1,4.26,4.26,0,0,0,0,8.51,2.9,2.9,0,0,0,2.24-1h.06V30c0,1.63-.87,2.5-2.27,2.5A2.35,2.35,0,0,1,75.15,31l-1.63.68A4.05,4.05,0,0,0,77.3,34.2c2.19,0,4-1.29,4-4.43V22.13H79.57Zm-2.14,5.88a2.59,2.59,0,0,1,0-5.16,2.4,2.4,0,0,1,2.27,2.59A2.38,2.38,0,0,1,77.42,28.71Zm24.38-11.08H97.33v12.5H99.2V25.39h2.61a3.89,3.89,0,1,0,0-7.76Zm0,6H99.2V19.36h2.65a2.14,2.14,0,1,1,0,4.29Zm11.53-1.8a3.5,3.5,0,0,0-3.33,1.91l1.66.69a1.77,1.77,0,0,1,1.7-.92,1.8,1.8,0,0,1,2,1.61v.13a4.13,4.13,0,0,0-1.95-.48c-1.79,0-3.6,1-3.6,2.81a2.89,2.89,0,0,0,3.1,2.75,2.63,2.63,0,0,0,2.38-1.22h.06v1h1.8V25.31C117.18,23.09,115.52,21.85,113.39,21.85Zm-.23,6.85c-.61,0-1.46-.31-1.46-1.06,0-1,1.06-1.33,2-1.33a3.32,3.32,0,0,1,1.7.42A2.26,2.26,0,0,1,113.16,28.71Zm10.58-6.58-2.14,5.42h-.06l-2.22-5.42h-2l3.33,7.58-1.9,4.21h1.95l5.13-11.79Zm-16.81,8h1.87V17.62h-1.87Z" transform="translate(0 -0.12)" style="fill:#fff"/><path d="M10.44,7.66A2,2,0,0,0,10,9.07V31.18a2,2,0,0,0,.46,1.4l.07.07L22.9,20.27V20L10.51,7.59Z" transform="translate(0 -0.12)" style="fill:url(#linear-gradient)"/><path d="M27,24.4,22.9,20.27V20L27,15.85l.09.05L32,18.68c1.4.79,1.4,2.09,0,2.89l-4.89,2.78Z" transform="translate(0 -0.12)" style="fill:url(#linear-gradient-2)"/><path d="M27.12,24.35,22.9,20.13,10.44,32.59a1.63,1.63,0,0,0,2.08.06l14.61-8.3" transform="translate(0 -0.12)" style="fill:url(#linear-gradient-3)"/><path d="M27.12,15.9,12.51,7.6a1.63,1.63,0,0,0-2.08.06L22.9,20.13Z" transform="translate(0 -0.12)" style="fill:url(#linear-gradient-4)"/><path d="M27,24.26,12.51,32.5a1.67,1.67,0,0,1-2,0h0l-.07.07h0l.07.07h0a1.66,1.66,0,0,0,2,0l14.61-8.3Z" transform="translate(0 -0.12)" style="opacity:0.2;isolation:isolate"/><path d="M10.44,32.44A2,2,0,0,1,10,31v.15a2,2,0,0,0,.46,1.4l.07-.07Z" transform="translate(0 -0.12)" style="opacity:0.12;isolation:isolate"/><path d="M32,21.42l-5,2.83.09.09L32,21.57a1.75,1.75,0,0,0,1-1.44h0A1.86,1.86,0,0,1,32,21.42Z" transform="translate(0 -0.12)" style="opacity:0.12;isolation:isolate"/><path d="M12.51,7.75,32,18.83a1.86,1.86,0,0,1,1,1.3h0a1.75,1.75,0,0,0-1-1.44L12.51,7.6C11.12,6.81,10,7.47,10,9.07v.15C10,7.61,11.12,7,12.51,7.75Z" transform="translate(0 -0.12)" style="fill:#fff;opacity:0.25;isolation:isolate"/></svg>