<svg width="2065" height="880" viewBox="0 0 2065 880" fill="none" xmlns="http://www.w3.org/2000/svg">
<path d="M6 772.037L82.2536 530.628C86.6212 516.801 105.656 515.449 111.934 528.521L273.42 864.793C279.795 878.068 299.203 876.409 303.232 862.245L392.006 550.23C393.134 546.266 395.748 542.89 399.304 540.805L476.35 495.643C480.876 492.991 483.814 488.288 484.212 483.056L491.135 392.137C492.507 374.114 518.034 371.837 522.575 389.332L621.547 770.569C625.358 785.243 645.539 786.885 651.668 773.018L670.983 729.322C675.999 717.971 691.468 716.406 698.658 726.521L728.799 768.926C737.294 780.879 756.054 776.059 757.735 761.491L781.806 552.938C782.484 547.061 786.351 542.037 791.86 539.877L906.292 495.011C912.199 492.695 916.18 487.106 916.438 480.766L925.691 253.234C926.428 235.134 951.942 232.002 957.034 249.387L1044.42 547.744C1049.06 563.596 1071.76 562.873 1075.38 546.758L1142.93 246.479C1146.38 231.137 1167.58 229.458 1173.4 244.066L1268.49 482.572C1274.73 498.221 1297.81 494.839 1299.3 478.057L1305.3 410.198C1305.42 408.89 1305.7 407.602 1306.13 406.362L1332.64 329.991C1337.74 315.289 1358.71 315.79 1363.1 330.721L1440.63 594.104C1445.47 610.537 1469.25 608.904 1471.8 591.964L1495.2 436.15C1497.49 420.906 1517.89 417.4 1525.15 431.004L1586.96 546.995C1594.95 562.002 1617.73 555.826 1617.07 538.836L1607.88 307.878C1607.27 292.218 1627.19 285.093 1636.64 297.599L1664.95 335.086C1673.87 346.897 1692.67 341.306 1693.68 326.541L1705.56 153.653C1706.09 145.875 1712.16 139.615 1719.92 138.83L1792.61 131.473C1799.88 130.738 1805.72 125.19 1806.83 117.981L1821.92 19.5745C1824.56 2.41734 1848.8 1.14361 1853.21 17.9305L1945.15 367.348C1949.29 383.118 1971.61 383.302 1976.03 367.602L1986.92 328.81C1990.39 316.446 2006.28 313.005 2014.55 322.825L2058.97 375.529" stroke="url(#paint0_linear_1_222)" stroke-width="10.6667" stroke-linecap="round" stroke-linejoin="round"/>
<defs>
<linearGradient id="paint0_linear_1_222" x1="977.46" y1="30.0679" x2="1057.94" y2="825.281" gradientUnits="userSpaceOnUse">
<stop stop-color="#7E00E1"/>
<stop offset="0.526042" stop-color="#00DFDF"/>
<stop offset="1" stop-color="#7E00E1"/>
</linearGradient>
</defs>
</svg>
